<?xml version="1.0" standalone="no"?>
<!DOCTYPE svg PUBLIC "-//W3C//DTD SVG 20010904//EN"
 "http://www.w3.org/TR/2001/REC-SVG-20010904/DTD/svg10.dtd">
<svg version="1.0" xmlns="http://www.w3.org/2000/svg"
 width="342.000000pt" height="349.000000pt" viewBox="0 0 342.000000 349.000000"
 preserveAspectRatio="xMidYMid meet">

<g transform="translate(0.000000,349.000000) scale(0.100000,-0.100000)"
fill="#000000" stroke="none">
<path d="M0 1745 l0 -1745 1710 0 1710 0 0 1745 0 1745 -1710 0 -1710 0 0
-1745z m2215 1036 c342 -97 558 -322 625 -652 19 -90 20 -138 20 -688 l0 -591
-265 0 -264 0 -3 593 -3 592 -25 50 c-36 73 -91 128 -163 161 l-62 29 -422 3
-423 3 0 -716 0 -715 -260 0 -260 0 0 884 0 884 28 53 c29 57 94 110 156 128
18 6 282 9 636 7 594 -2 606 -3 685 -25z"/>
</g>
</svg>
